<svg width="960" height="540" viewBox="0 0 960 540" fill="none" xmlns="http://www.w3.org/2000/svg">
<g clip-path="url(#clip0_522_215)">
<path d="M156 257C156 250.373 161.373 245 168 245H791C797.627 245 803 250.373 803 257V558C803 564.627 797.627 570 791 570H168C161.373 570 156 564.627 156 558V257Z" fill="black"/>
<path d="M166.853 286.353C166.853 285.62 166.78 285.031 166.633 284.587C166.491 284.142 166.298 283.804 166.053 283.573C165.813 283.342 165.544 283.187 165.247 283.107C164.953 283.027 164.653 282.987 164.347 282.987H163.5V289.827H164.353C164.673 289.827 164.982 289.776 165.28 289.673C165.578 289.571 165.844 289.393 166.08 289.14C166.32 288.887 166.509 288.536 166.647 288.087C166.784 287.633 166.853 287.056 166.853 286.353ZM168.48 286.353C168.48 287.113 168.398 287.762 168.233 288.3C168.073 288.838 167.851 289.284 167.567 289.64C167.287 289.991 166.962 290.267 166.593 290.467C166.229 290.662 165.842 290.8 165.433 290.88C165.024 290.96 164.616 291 164.207 291H161.953V281.8H164.053C164.613 281.8 165.156 281.86 165.68 281.98C166.209 282.1 166.682 282.322 167.1 282.647C167.522 282.971 167.858 283.431 168.107 284.027C168.356 284.622 168.48 285.398 168.48 286.353ZM171.425 287.96C171.456 288.44 171.558 288.833 171.731 289.14C171.905 289.442 172.131 289.664 172.411 289.807C172.696 289.949 173.007 290.02 173.345 290.02C173.691 290.02 174.011 289.967 174.305 289.86C174.598 289.753 174.894 289.602 175.191 289.407L175.838 290.3C175.509 290.567 175.125 290.78 174.685 290.94C174.245 291.1 173.774 291.18 173.271 291.18C172.542 291.18 171.925 291.024 171.418 290.713C170.916 290.402 170.534 289.969 170.271 289.413C170.009 288.858 169.878 288.216 169.878 287.487C169.878 286.78 170.007 286.149 170.265 285.593C170.522 285.033 170.891 284.591 171.371 284.267C171.851 283.938 172.425 283.773 173.091 283.773C173.718 283.773 174.256 283.916 174.705 284.2C175.158 284.484 175.507 284.889 175.751 285.413C176 285.933 176.125 286.56 176.125 287.293C176.125 287.413 176.12 287.533 176.111 287.653C176.107 287.769 176.1 287.871 176.091 287.96H171.425ZM173.105 284.88C172.638 284.88 172.251 285.047 171.945 285.38C171.642 285.713 171.467 286.233 171.418 286.94H174.678C174.665 286.278 174.522 285.769 174.251 285.413C173.985 285.058 173.602 284.88 173.105 284.88ZM180.743 290.033C181.209 290.033 181.581 289.951 181.856 289.787C182.132 289.618 182.269 289.387 182.269 289.093C182.269 288.902 182.229 288.74 182.149 288.607C182.069 288.469 181.909 288.344 181.669 288.233C181.429 288.118 181.065 287.998 180.576 287.873C180.114 287.753 179.707 287.611 179.356 287.447C179.009 287.282 178.741 287.069 178.549 286.807C178.358 286.544 178.263 286.207 178.263 285.793C178.263 285.389 178.376 285.036 178.603 284.733C178.829 284.431 179.154 284.196 179.576 284.027C180.003 283.858 180.503 283.773 181.076 283.773C181.667 283.773 182.183 283.851 182.623 284.007C183.063 284.162 183.438 284.356 183.749 284.587L183.123 285.527C182.847 285.344 182.545 285.196 182.216 285.08C181.892 284.964 181.525 284.907 181.116 284.907C180.641 284.907 180.298 284.978 180.089 285.12C179.885 285.262 179.783 285.451 179.783 285.687C179.783 285.86 179.834 286.007 179.936 286.127C180.043 286.242 180.225 286.351 180.483 286.453C180.741 286.551 181.105 286.667 181.576 286.8C182.034 286.924 182.432 287.071 182.769 287.24C183.112 287.409 183.376 287.633 183.563 287.913C183.754 288.189 183.849 288.549 183.849 288.993C183.849 289.5 183.703 289.916 183.409 290.24C183.121 290.56 182.738 290.798 182.263 290.953C181.792 291.104 181.285 291.18 180.743 291.18C180.089 291.18 179.525 291.087 179.049 290.9C178.574 290.709 178.174 290.471 177.849 290.187L178.643 289.28C178.918 289.502 179.234 289.684 179.589 289.827C179.945 289.964 180.329 290.033 180.743 290.033ZM192.381 283.96L189.534 287.107L192.681 291H190.854L187.827 287.147L190.641 283.96H192.381ZM187.721 280.967V291H186.227V281.133L187.721 280.967ZM200.059 290.627C199.801 290.791 199.492 290.924 199.132 291.027C198.772 291.129 198.397 291.18 198.006 291.18C197.188 291.18 196.566 290.969 196.139 290.547C195.717 290.12 195.506 289.56 195.506 288.867V285.047H193.939V283.96H195.506V282.387L196.999 282.207V283.96H199.372L199.206 285.047H196.999V288.853C196.999 289.231 197.092 289.513 197.279 289.7C197.47 289.882 197.781 289.973 198.212 289.973C198.47 289.973 198.708 289.942 198.926 289.88C199.143 289.818 199.341 289.738 199.519 289.64L200.059 290.627ZM204.997 283.773C205.686 283.773 206.266 283.927 206.737 284.233C207.208 284.54 207.564 284.969 207.804 285.52C208.048 286.071 208.17 286.72 208.17 287.467C208.17 288.209 208.046 288.86 207.797 289.42C207.552 289.976 207.192 290.409 206.717 290.72C206.246 291.027 205.67 291.18 204.99 291.18C204.31 291.18 203.732 291.031 203.257 290.733C202.786 290.431 202.426 290.002 202.177 289.447C201.932 288.891 201.81 288.236 201.81 287.48C201.81 286.747 201.932 286.102 202.177 285.547C202.426 284.991 202.788 284.558 203.264 284.247C203.739 283.931 204.317 283.773 204.997 283.773ZM204.997 284.933C204.459 284.933 204.055 285.14 203.784 285.553C203.512 285.962 203.377 286.604 203.377 287.48C203.377 288.351 203.51 288.993 203.777 289.407C204.048 289.82 204.452 290.027 204.99 290.027C205.528 290.027 205.93 289.82 206.197 289.407C206.468 288.993 206.604 288.347 206.604 287.467C206.604 286.6 206.47 285.962 206.204 285.553C205.937 285.14 205.535 284.933 204.997 284.933ZM213.608 283.773C214.231 283.773 214.728 283.927 215.102 284.233C215.475 284.536 215.746 284.964 215.915 285.52C216.084 286.071 216.168 286.72 216.168 287.467C216.168 288.182 216.066 288.82 215.862 289.38C215.657 289.94 215.353 290.38 214.948 290.7C214.548 291.02 214.051 291.18 213.455 291.18C212.717 291.18 212.122 290.92 211.668 290.4V293.707L210.175 293.873V283.96H211.475L211.568 284.867C211.835 284.502 212.144 284.229 212.495 284.047C212.851 283.864 213.222 283.773 213.608 283.773ZM213.195 284.927C212.862 284.927 212.568 285.027 212.315 285.227C212.062 285.427 211.846 285.662 211.668 285.933V289.227C211.837 289.48 212.037 289.676 212.268 289.813C212.504 289.947 212.768 290.013 213.062 290.013C213.564 290.013 213.946 289.811 214.208 289.407C214.471 289.002 214.602 288.358 214.602 287.473C214.602 286.873 214.548 286.387 214.442 286.013C214.339 285.636 214.184 285.36 213.975 285.187C213.771 285.013 213.511 284.927 213.195 284.927ZM218.233 287.44V286.213H223.74V287.44H218.233ZM230.598 288.787H227.311L226.671 291H225.098L228.024 281.8H229.944L232.878 291H231.238L230.598 288.787ZM227.631 287.593H230.271L228.958 283L227.631 287.593ZM238.209 281.8V290.733H236.729V283.333L234.702 284.58L234.062 283.533L236.889 281.8H238.209ZM240.049 289.827V291H234.482V289.827H240.049ZM246.72 288.34C246.72 287.927 246.64 287.607 246.48 287.38C246.32 287.153 246.105 286.996 245.834 286.907C245.563 286.813 245.258 286.767 244.92 286.767H243.607V289.8H244.854C245.076 289.8 245.296 289.782 245.514 289.747C245.736 289.707 245.938 289.636 246.12 289.533C246.303 289.427 246.447 289.278 246.554 289.087C246.665 288.896 246.72 288.647 246.72 288.34ZM246.367 284.253C246.367 283.791 246.223 283.46 245.934 283.26C245.645 283.06 245.238 282.96 244.714 282.96H243.607V285.62H244.807C245.323 285.62 245.712 285.513 245.974 285.3C246.236 285.082 246.367 284.733 246.367 284.253ZM248.334 288.347C248.334 288.858 248.234 289.287 248.034 289.633C247.834 289.976 247.563 290.247 247.22 290.447C246.883 290.647 246.5 290.789 246.074 290.873C245.647 290.958 245.207 291 244.754 291H242.06V281.8H244.574C245.005 281.8 245.42 281.838 245.82 281.913C246.22 281.984 246.578 282.109 246.894 282.287C247.214 282.464 247.467 282.704 247.654 283.007C247.84 283.304 247.934 283.678 247.934 284.127C247.934 284.513 247.854 284.842 247.694 285.113C247.534 285.384 247.323 285.604 247.06 285.773C246.803 285.938 246.527 286.056 246.234 286.127C246.567 286.18 246.894 286.284 247.214 286.44C247.538 286.591 247.805 286.82 248.014 287.127C248.227 287.433 248.334 287.84 248.334 288.347ZM252.605 281.613C253.232 281.613 253.761 281.731 254.192 281.967C254.627 282.198 254.959 282.509 255.185 282.9C255.416 283.291 255.532 283.729 255.532 284.213C255.532 284.613 255.461 285.007 255.319 285.393C255.181 285.78 254.956 286.187 254.645 286.613C254.339 287.036 253.932 287.507 253.425 288.027C252.919 288.542 252.299 289.133 251.565 289.8H255.745L255.572 291H249.852V289.867C250.514 289.236 251.081 288.68 251.552 288.2C252.023 287.716 252.416 287.291 252.732 286.927C253.047 286.558 253.296 286.227 253.479 285.933C253.661 285.636 253.79 285.358 253.865 285.1C253.945 284.838 253.985 284.573 253.985 284.307C253.985 283.844 253.854 283.48 253.592 283.213C253.33 282.947 252.965 282.813 252.499 282.813C252.081 282.813 251.734 282.889 251.459 283.04C251.183 283.191 250.91 283.436 250.639 283.773L249.665 283.033C250.025 282.576 250.439 282.224 250.905 281.98C251.372 281.736 251.939 281.613 252.605 281.613ZM261.75 281.613C262.372 281.613 262.897 281.696 263.323 281.86C263.754 282.02 264.154 282.251 264.523 282.553L263.717 283.513C263.441 283.282 263.145 283.111 262.83 283C262.514 282.889 262.179 282.833 261.823 282.833C261.365 282.833 260.943 282.949 260.557 283.18C260.17 283.411 259.859 283.787 259.623 284.307C259.392 284.827 259.277 285.52 259.277 286.387C259.277 287.236 259.388 287.92 259.61 288.44C259.832 288.96 260.137 289.338 260.523 289.573C260.91 289.809 261.343 289.927 261.823 289.927C262.317 289.927 262.725 289.847 263.05 289.687C263.374 289.522 263.661 289.338 263.91 289.133L264.657 290.087C264.35 290.384 263.961 290.642 263.49 290.86C263.019 291.073 262.445 291.18 261.77 291.18C260.992 291.18 260.292 290.998 259.67 290.633C259.052 290.264 258.563 289.724 258.203 289.013C257.848 288.302 257.67 287.427 257.67 286.387C257.67 285.356 257.854 284.487 258.223 283.78C258.592 283.069 259.085 282.531 259.703 282.167C260.321 281.798 261.003 281.613 261.75 281.613ZM268.575 281.613C269.183 281.613 269.708 281.72 270.148 281.933C270.588 282.147 270.926 282.429 271.161 282.78C271.397 283.131 271.515 283.518 271.515 283.94C271.515 284.318 271.435 284.656 271.275 284.953C271.115 285.251 270.897 285.498 270.621 285.693C270.346 285.889 270.035 286.027 269.688 286.107C270.075 286.147 270.428 286.253 270.748 286.427C271.068 286.6 271.323 286.847 271.515 287.167C271.71 287.487 271.808 287.889 271.808 288.373C271.808 288.898 271.67 289.373 271.395 289.8C271.123 290.222 270.737 290.558 270.235 290.807C269.737 291.056 269.15 291.18 268.475 291.18C267.897 291.18 267.346 291.073 266.821 290.86C266.301 290.647 265.859 290.324 265.495 289.893L266.408 289.093C266.67 289.4 266.977 289.627 267.328 289.773C267.679 289.92 268.039 289.993 268.408 289.993C268.977 289.993 269.428 289.847 269.761 289.553C270.095 289.256 270.261 288.844 270.261 288.32C270.261 287.92 270.186 287.604 270.035 287.373C269.888 287.138 269.681 286.969 269.415 286.867C269.148 286.764 268.839 286.713 268.488 286.713H267.695L267.868 285.613H268.428C268.717 285.613 268.983 285.562 269.228 285.46C269.472 285.353 269.668 285.191 269.815 284.973C269.966 284.756 270.041 284.484 270.041 284.16C270.041 283.711 269.888 283.367 269.581 283.127C269.279 282.887 268.903 282.767 268.455 282.767C268.072 282.767 267.73 282.838 267.428 282.98C267.13 283.118 266.837 283.322 266.548 283.593L265.755 282.747C266.159 282.36 266.597 282.076 267.068 281.893C267.539 281.707 268.041 281.613 268.575 281.613Z" fill="#16C60C"/>
<path d="M275.766 289.973C275.766 289.649 275.882 289.371 276.113 289.14C276.344 288.904 276.628 288.787 276.966 288.787C277.308 288.787 277.593 288.904 277.819 289.14C278.05 289.371 278.166 289.649 278.166 289.973C278.166 290.307 278.05 290.591 277.819 290.827C277.593 291.062 277.308 291.18 276.966 291.18C276.628 291.18 276.344 291.062 276.113 290.827C275.882 290.591 275.766 290.307 275.766 289.973ZM275.766 285.24C275.766 285.022 275.819 284.822 275.926 284.64C276.033 284.458 276.177 284.313 276.359 284.207C276.542 284.1 276.744 284.047 276.966 284.047C277.308 284.047 277.593 284.164 277.819 284.4C278.05 284.631 278.166 284.911 278.166 285.24C278.166 285.569 278.05 285.853 277.819 286.093C277.593 286.329 277.308 286.447 276.966 286.447C276.628 286.447 276.344 286.329 276.113 286.093C275.882 285.853 275.766 285.569 275.766 285.24ZM299.918 291.39C300.425 290.935 301.075 290.584 301.855 290.324L302.024 289.908C301.439 289.934 300.932 290.012 300.568 290.116L302.414 285.696L299.229 287.217L300.295 283.824L299.749 283.694L298.345 288.192L301.361 286.775L300.074 289.921C299.905 289.596 299.619 289.206 299.216 288.751L299.047 289.167C299.424 289.908 299.645 290.623 299.697 291.299L299.918 291.39Z" fill="white"/>
<path d="M283.697 285.507C284.031 285.507 284.315 285.573 284.551 285.707C284.786 285.84 284.997 285.996 285.184 286.173C285.371 286.351 285.551 286.507 285.724 286.64C285.897 286.773 286.086 286.84 286.291 286.84C286.557 286.84 286.791 286.74 286.991 286.54C287.195 286.336 287.384 286.071 287.557 285.747L288.504 286.2C288.353 286.516 288.175 286.813 287.971 287.093C287.771 287.373 287.531 287.602 287.251 287.78C286.975 287.958 286.64 288.047 286.244 288.047C285.928 288.047 285.653 287.98 285.417 287.847C285.186 287.713 284.975 287.558 284.784 287.38C284.597 287.202 284.413 287.047 284.231 286.913C284.053 286.78 283.86 286.713 283.651 286.713C283.375 286.713 283.137 286.818 282.937 287.027C282.742 287.231 282.557 287.493 282.384 287.813L281.437 287.367C281.593 287.06 281.768 286.767 281.964 286.487C282.164 286.202 282.404 285.969 282.684 285.787C282.964 285.6 283.302 285.507 283.697 285.507ZM290.735 292.42L289.549 291.887L295.215 280.173L296.389 280.727L290.735 292.42Z" fill="#3B78FF"/>
<g clip-path="url(#clip1_522_215)">
<mask id="path-3-inside-1_522_215" fill="white">
<path d="M156 257C156 250.373 161.373 245 168 245H791C797.627 245 803 250.373 803 257V274H156V257Z"/>
</mask>
<path d="M156 257C156 250.373 161.373 245 168 245H791C797.627 245 803 250.373 803 257V274H156V257Z" fill="#F2EEF1"/>
<circle cx="175" cy="260" r="7" fill="#FA4F4C"/>
<circle cx="196" cy="260" r="7" fill="#FDB138"/>
<circle cx="217" cy="260" r="7" fill="#51C06A"/>
<path d="M451.233 256.909V258.017H447.226V256.909H451.233ZM448.324 264V256.087C448.324 255.644 448.421 255.276 448.615 254.984C448.809 254.689 449.066 254.469 449.386 254.324C449.706 254.176 450.054 254.102 450.429 254.102C450.706 254.102 450.943 254.125 451.14 254.172C451.337 254.215 451.484 254.255 451.579 254.292L451.256 255.409C451.191 255.39 451.108 255.369 451.007 255.344C450.905 255.316 450.782 255.303 450.637 255.303C450.302 255.303 450.062 255.386 449.917 255.552C449.775 255.718 449.705 255.958 449.705 256.272V264H448.324ZM454.037 254.545V264H452.657V254.545H454.037ZM457.958 264.157C457.508 264.157 457.102 264.074 456.739 263.908C456.376 263.738 456.088 263.494 455.876 263.174C455.666 262.854 455.562 262.461 455.562 261.996C455.562 261.596 455.639 261.267 455.793 261.009C455.947 260.75 456.154 260.545 456.416 260.395C456.677 260.244 456.97 260.13 457.293 260.053C457.616 259.976 457.945 259.917 458.281 259.877C458.706 259.828 459.05 259.788 459.315 259.757C459.58 259.724 459.772 259.67 459.892 259.596C460.012 259.522 460.072 259.402 460.072 259.236V259.203C460.072 258.8 459.958 258.488 459.731 258.266C459.506 258.045 459.17 257.934 458.724 257.934C458.259 257.934 457.893 258.037 457.625 258.243C457.361 258.446 457.178 258.673 457.076 258.922L455.779 258.626C455.933 258.196 456.157 257.848 456.453 257.583C456.751 257.315 457.095 257.121 457.482 257.001C457.87 256.878 458.278 256.817 458.706 256.817C458.989 256.817 459.289 256.851 459.606 256.918C459.926 256.983 460.224 257.103 460.501 257.278C460.782 257.454 461.011 257.705 461.189 258.031C461.368 258.354 461.457 258.774 461.457 259.291V264H460.109V263.031H460.054C459.964 263.209 459.831 263.384 459.652 263.557C459.474 263.729 459.244 263.872 458.964 263.986C458.684 264.1 458.349 264.157 457.958 264.157ZM458.258 263.049C458.639 263.049 458.966 262.974 459.237 262.823C459.51 262.672 459.718 262.475 459.86 262.232C460.004 261.986 460.077 261.723 460.077 261.442V260.528C460.028 260.578 459.932 260.624 459.791 260.667C459.652 260.707 459.494 260.742 459.315 260.773C459.137 260.801 458.963 260.827 458.793 260.852C458.624 260.873 458.483 260.892 458.369 260.907C458.101 260.941 457.856 260.998 457.635 261.078C457.416 261.158 457.241 261.273 457.108 261.424C456.979 261.572 456.914 261.769 456.914 262.015C456.914 262.357 457.041 262.615 457.293 262.79C457.545 262.963 457.867 263.049 458.258 263.049ZM468.609 258.64L467.358 258.862C467.306 258.702 467.223 258.549 467.109 258.405C466.998 258.26 466.847 258.142 466.656 258.049C466.466 257.957 466.227 257.911 465.941 257.911C465.55 257.911 465.224 257.999 464.962 258.174C464.701 258.346 464.57 258.569 464.57 258.843C464.57 259.08 464.657 259.271 464.833 259.416C465.008 259.56 465.291 259.679 465.682 259.771L466.809 260.03C467.461 260.181 467.947 260.413 468.268 260.727C468.588 261.041 468.748 261.449 468.748 261.95C468.748 262.375 468.625 262.754 468.378 263.086C468.135 263.415 467.795 263.674 467.358 263.862C466.924 264.049 466.421 264.143 465.848 264.143C465.054 264.143 464.407 263.974 463.905 263.635C463.403 263.294 463.096 262.809 462.982 262.181L464.316 261.978C464.399 262.326 464.57 262.589 464.828 262.767C465.087 262.943 465.424 263.031 465.839 263.031C466.292 263.031 466.653 262.937 466.924 262.749C467.195 262.558 467.33 262.326 467.33 262.052C467.33 261.83 467.247 261.644 467.081 261.493C466.918 261.342 466.667 261.229 466.329 261.152L465.128 260.888C464.467 260.738 463.977 260.498 463.66 260.168C463.346 259.839 463.189 259.422 463.189 258.917C463.189 258.499 463.306 258.132 463.54 257.819C463.774 257.505 464.097 257.26 464.51 257.085C464.922 256.906 465.395 256.817 465.927 256.817C466.693 256.817 467.297 256.983 467.737 257.315C468.177 257.645 468.468 258.086 468.609 258.64ZM471.646 259.79V264H470.265V254.545H471.627V258.063H471.715C471.881 257.682 472.135 257.378 472.477 257.154C472.818 256.929 473.264 256.817 473.815 256.817C474.302 256.817 474.726 256.917 475.09 257.117C475.456 257.317 475.739 257.615 475.939 258.012C476.142 258.406 476.244 258.899 476.244 259.49V264H474.863V259.656C474.863 259.136 474.729 258.733 474.462 258.446C474.194 258.157 473.822 258.012 473.345 258.012C473.018 258.012 472.726 258.082 472.467 258.22C472.212 258.359 472.01 258.562 471.863 258.83C471.718 259.094 471.646 259.414 471.646 259.79ZM482.264 259.407V260.602H478.072V259.407H482.264ZM489.417 258.64L488.166 258.862C488.113 258.702 488.03 258.549 487.916 258.405C487.806 258.26 487.655 258.142 487.464 258.049C487.273 257.957 487.035 257.911 486.748 257.911C486.358 257.911 486.031 257.999 485.77 258.174C485.508 258.346 485.377 258.569 485.377 258.843C485.377 259.08 485.465 259.271 485.64 259.416C485.816 259.56 486.099 259.679 486.49 259.771L487.616 260.03C488.269 260.181 488.755 260.413 489.075 260.727C489.395 261.041 489.555 261.449 489.555 261.95C489.555 262.375 489.432 262.754 489.186 263.086C488.943 263.415 488.603 263.674 488.166 263.862C487.732 264.049 487.229 264.143 486.656 264.143C485.862 264.143 485.214 263.974 484.713 263.635C484.211 263.294 483.903 262.809 483.789 262.181L485.123 261.978C485.207 262.326 485.377 262.589 485.636 262.767C485.894 262.943 486.231 263.031 486.647 263.031C487.099 263.031 487.461 262.937 487.732 262.749C488.003 262.558 488.138 262.326 488.138 262.052C488.138 261.83 488.055 261.644 487.889 261.493C487.726 261.342 487.475 261.229 487.136 261.152L485.936 260.888C485.274 260.738 484.785 260.498 484.468 260.168C484.154 259.839 483.997 259.422 483.997 258.917C483.997 258.499 484.114 258.132 484.348 257.819C484.582 257.505 484.905 257.26 485.317 257.085C485.73 256.906 486.202 256.817 486.735 256.817C487.501 256.817 488.104 256.983 488.544 257.315C488.984 257.645 489.275 258.086 489.417 258.64ZM492.453 259.79V264H491.073V254.545H492.435V258.063H492.523C492.689 257.682 492.943 257.378 493.284 257.154C493.626 256.929 494.072 256.817 494.623 256.817C495.109 256.817 495.534 256.917 495.897 257.117C496.263 257.317 496.547 257.615 496.747 258.012C496.95 258.406 497.051 258.899 497.051 259.49V264H495.671V259.656C495.671 259.136 495.537 258.733 495.269 258.446C495.002 258.157 494.629 258.012 494.152 258.012C493.826 258.012 493.534 258.082 493.275 258.22C493.02 258.359 492.818 258.562 492.67 258.83C492.526 259.094 492.453 259.414 492.453 259.79ZM501.949 264.143C501.251 264.143 500.649 263.994 500.144 263.695C499.643 263.394 499.255 262.971 498.981 262.426C498.71 261.878 498.575 261.236 498.575 260.501C498.575 259.774 498.71 259.134 498.981 258.58C499.255 258.026 499.636 257.594 500.126 257.283C500.618 256.972 501.194 256.817 501.852 256.817C502.253 256.817 502.64 256.883 503.016 257.015C503.391 257.148 503.728 257.355 504.027 257.638C504.325 257.922 504.561 258.289 504.733 258.742C504.905 259.191 504.992 259.737 504.992 260.381V260.87H499.355V259.836H503.639C503.639 259.473 503.565 259.151 503.417 258.871C503.27 258.588 503.062 258.365 502.794 258.202C502.529 258.039 502.219 257.957 501.862 257.957C501.474 257.957 501.135 258.052 500.846 258.243C500.56 258.431 500.338 258.677 500.181 258.982C500.027 259.283 499.95 259.611 499.95 259.965V260.773C499.95 261.247 500.034 261.65 500.2 261.983C500.369 262.315 500.604 262.569 500.906 262.744C501.208 262.917 501.56 263.003 501.963 263.003C502.225 263.003 502.463 262.966 502.679 262.892C502.894 262.815 503.08 262.701 503.237 262.55C503.394 262.4 503.514 262.213 503.597 261.992L504.904 262.227C504.799 262.612 504.612 262.949 504.341 263.238C504.073 263.525 503.736 263.748 503.33 263.908C502.927 264.065 502.466 264.143 501.949 264.143ZM507.903 254.545V264H506.523V254.545H507.903ZM511.141 254.545V264H509.76V254.545H511.141Z" fill="black"/>
</g>
<path d="M156 245H803H156ZM803 275H156V273H803V275ZM156 274V245V274ZM803 245V274V245Z" fill="#D1D1D1" mask="url(#path-3-inside-1_522_215)"/>
<path d="M373.85 514.727V522H372.841L369.144 516.666H369.077V522H367.98V514.727H368.995L372.696 520.068H372.763V514.727H373.85ZM377.663 522.11C377.151 522.11 376.705 521.993 376.324 521.759C375.943 521.524 375.647 521.196 375.436 520.775C375.225 520.353 375.12 519.861 375.12 519.298C375.12 518.732 375.225 518.237 375.436 517.813C375.647 517.389 375.943 517.06 376.324 516.826C376.705 516.592 377.151 516.474 377.663 516.474C378.174 516.474 378.62 516.592 379.002 516.826C379.383 517.06 379.679 517.389 379.889 517.813C380.1 518.237 380.205 518.732 380.205 519.298C380.205 519.861 380.1 520.353 379.889 520.775C379.679 521.196 379.383 521.524 379.002 521.759C378.62 521.993 378.174 522.11 377.663 522.11ZM377.666 521.219C377.998 521.219 378.272 521.131 378.49 520.956C378.708 520.781 378.869 520.548 378.973 520.256C379.08 519.965 379.133 519.644 379.133 519.294C379.133 518.946 379.08 518.626 378.973 518.335C378.869 518.042 378.708 517.806 378.49 517.629C378.272 517.451 377.998 517.362 377.666 517.362C377.332 517.362 377.055 517.451 376.835 517.629C376.618 517.806 376.455 518.042 376.349 518.335C376.245 518.626 376.193 518.946 376.193 519.294C376.193 519.644 376.245 519.965 376.349 520.256C376.455 520.548 376.618 520.781 376.835 520.956C377.055 521.131 377.332 521.219 377.666 521.219ZM383.937 516.545V517.398H380.957V516.545H383.937ZM381.756 515.239H382.818V520.398C382.818 520.604 382.849 520.759 382.91 520.864C382.972 520.965 383.051 521.035 383.148 521.073C383.248 521.109 383.355 521.126 383.472 521.126C383.557 521.126 383.631 521.121 383.695 521.109C383.759 521.097 383.809 521.087 383.844 521.08L384.036 521.957C383.975 521.981 383.887 522.005 383.773 522.028C383.66 522.054 383.518 522.069 383.347 522.071C383.068 522.076 382.807 522.026 382.566 521.922C382.324 521.818 382.129 521.657 381.98 521.439C381.831 521.221 381.756 520.948 381.756 520.619V515.239ZM387.403 522.11C386.866 522.11 386.403 521.995 386.015 521.766C385.629 521.534 385.331 521.208 385.12 520.789C384.912 520.368 384.808 519.874 384.808 519.308C384.808 518.75 384.912 518.257 385.12 517.831C385.331 517.405 385.624 517.072 386.001 516.833C386.38 516.594 386.822 516.474 387.329 516.474C387.637 516.474 387.935 516.525 388.224 516.627C388.513 516.729 388.772 516.889 389.002 517.107C389.231 517.324 389.412 517.607 389.545 517.955C389.677 518.301 389.744 518.721 389.744 519.216V519.592H385.408V518.797H388.703C388.703 518.518 388.646 518.27 388.533 518.055C388.419 517.837 388.259 517.665 388.053 517.54C387.85 517.414 387.611 517.352 387.336 517.352C387.038 517.352 386.777 517.425 386.555 517.572C386.335 517.716 386.164 517.906 386.043 518.14C385.925 518.372 385.866 518.624 385.866 518.896V519.518C385.866 519.882 385.93 520.192 386.058 520.448C386.188 520.704 386.369 520.899 386.601 521.034C386.833 521.167 387.104 521.233 387.414 521.233C387.615 521.233 387.799 521.205 387.965 521.148C388.13 521.089 388.274 521.001 388.394 520.885C388.515 520.769 388.607 520.626 388.671 520.455L389.676 520.636C389.596 520.932 389.451 521.192 389.243 521.414C389.037 521.634 388.778 521.806 388.465 521.929C388.155 522.05 387.801 522.11 387.403 522.11ZM391.621 522.067C391.427 522.067 391.26 521.999 391.121 521.862C390.981 521.722 390.911 521.554 390.911 521.357C390.911 521.163 390.981 520.997 391.121 520.86C391.26 520.72 391.427 520.651 391.621 520.651C391.815 520.651 391.982 520.72 392.122 520.86C392.262 520.997 392.332 521.163 392.332 521.357C392.332 521.487 392.298 521.607 392.232 521.716C392.168 521.822 392.083 521.908 391.976 521.972C391.87 522.036 391.752 522.067 391.621 522.067ZM391.621 518.097C391.427 518.097 391.26 518.027 391.121 517.888C390.981 517.748 390.911 517.581 390.911 517.387C390.911 517.193 390.981 517.027 391.121 516.89C391.26 516.75 391.427 516.68 391.621 516.68C391.815 516.68 391.982 516.75 392.122 516.89C392.262 517.027 392.332 517.193 392.332 517.387C392.332 517.517 392.298 517.637 392.232 517.746C392.168 517.852 392.083 517.937 391.976 518.001C391.87 518.065 391.752 518.097 391.621 518.097ZM396.486 522V514.727H400.995V515.672H397.583V517.888H400.672V518.829H397.583V522H396.486ZM403.321 514.727V522H402.26V514.727H403.321ZM406.337 522.121C405.992 522.121 405.679 522.057 405.4 521.929C405.12 521.799 404.899 521.611 404.736 521.364C404.575 521.118 404.494 520.816 404.494 520.459C404.494 520.151 404.553 519.898 404.672 519.699C404.79 519.5 404.95 519.343 405.151 519.227C405.352 519.111 405.577 519.023 405.826 518.964C406.074 518.905 406.328 518.86 406.586 518.829C406.913 518.791 407.178 518.76 407.381 518.737C407.585 518.71 407.733 518.669 407.825 518.612C407.918 518.555 407.964 518.463 407.964 518.335V518.31C407.964 518 407.876 517.76 407.701 517.589C407.528 517.419 407.27 517.334 406.927 517.334C406.569 517.334 406.288 517.413 406.082 517.572C405.878 517.728 405.737 517.902 405.659 518.094L404.661 517.866C404.78 517.535 404.952 517.268 405.18 517.064C405.409 516.858 405.673 516.709 405.972 516.616C406.27 516.522 406.583 516.474 406.913 516.474C407.13 516.474 407.361 516.5 407.605 516.553C407.851 516.602 408.081 516.695 408.294 516.83C408.509 516.964 408.686 517.157 408.823 517.408C408.96 517.657 409.029 517.98 409.029 518.378V522H407.992V521.254H407.949C407.881 521.392 407.778 521.527 407.641 521.659C407.503 521.792 407.327 521.902 407.111 521.989C406.896 522.077 406.638 522.121 406.337 522.121ZM406.568 521.268C406.862 521.268 407.113 521.21 407.321 521.094C407.532 520.978 407.691 520.827 407.8 520.64C407.912 520.451 407.967 520.248 407.967 520.033V519.33C407.929 519.367 407.856 519.403 407.747 519.436C407.641 519.467 407.519 519.494 407.381 519.518C407.244 519.539 407.11 519.559 406.98 519.578C406.85 519.595 406.741 519.609 406.653 519.621C406.447 519.647 406.259 519.691 406.089 519.752C405.921 519.814 405.786 519.902 405.684 520.018C405.584 520.132 405.535 520.284 405.535 520.473C405.535 520.736 405.632 520.935 405.826 521.07C406.02 521.202 406.267 521.268 406.568 521.268ZM414.531 517.877L413.568 518.048C413.528 517.924 413.464 517.807 413.377 517.696C413.291 517.585 413.175 517.494 413.028 517.423C412.882 517.352 412.698 517.316 412.478 517.316C412.177 517.316 411.926 517.384 411.725 517.518C411.524 517.651 411.423 517.823 411.423 518.033C411.423 518.216 411.491 518.362 411.626 518.474C411.761 518.585 411.979 518.676 412.279 518.747L413.146 518.946C413.648 519.062 414.022 519.241 414.268 519.482C414.514 519.724 414.637 520.037 414.637 520.423C414.637 520.75 414.542 521.041 414.353 521.297C414.166 521.55 413.904 521.749 413.568 521.893C413.234 522.038 412.847 522.11 412.407 522.11C411.796 522.11 411.298 521.98 410.912 521.719C410.526 521.457 410.289 521.084 410.202 520.601L411.228 520.445C411.292 520.712 411.423 520.915 411.622 521.052C411.821 521.187 412.08 521.254 412.4 521.254C412.748 521.254 413.026 521.182 413.234 521.038C413.443 520.891 413.547 520.712 413.547 520.501C413.547 520.331 413.483 520.188 413.355 520.072C413.23 519.956 413.037 519.868 412.776 519.809L411.853 519.607C411.344 519.491 410.968 519.306 410.724 519.053C410.482 518.799 410.362 518.478 410.362 518.09C410.362 517.768 410.452 517.487 410.631 517.245C410.811 517.004 411.06 516.815 411.377 516.68C411.694 516.543 412.058 516.474 412.467 516.474C413.057 516.474 413.521 516.602 413.859 516.858C414.198 517.111 414.422 517.451 414.531 517.877ZM416.866 518.761V522H415.805V514.727H416.852V517.433H416.92C417.047 517.14 417.243 516.906 417.506 516.734C417.768 516.561 418.112 516.474 418.535 516.474C418.909 516.474 419.236 516.551 419.516 516.705C419.797 516.859 420.015 517.089 420.169 517.394C420.325 517.697 420.403 518.076 420.403 518.531V522H419.342V518.658C419.342 518.258 419.239 517.948 419.033 517.728C418.827 517.505 418.54 517.394 418.173 517.394C417.922 517.394 417.697 517.447 417.498 517.554C417.302 517.661 417.147 517.817 417.033 518.023C416.922 518.226 416.866 518.473 416.866 518.761ZM424.467 522V516.545H425.528V522H424.467ZM425.003 515.704C424.818 515.704 424.66 515.642 424.527 515.519C424.397 515.394 424.332 515.245 424.332 515.072C424.332 514.897 424.397 514.747 424.527 514.624C424.66 514.499 424.818 514.436 425.003 514.436C425.188 514.436 425.345 514.499 425.475 514.624C425.608 514.747 425.674 514.897 425.674 515.072C425.674 515.245 425.608 515.394 425.475 515.519C425.345 515.642 425.188 515.704 425.003 515.704ZM431.044 517.877L430.082 518.048C430.042 517.924 429.978 517.807 429.89 517.696C429.805 517.585 429.689 517.494 429.542 517.423C429.395 517.352 429.212 517.316 428.992 517.316C428.691 517.316 428.44 517.384 428.239 517.518C428.038 517.651 427.937 517.823 427.937 518.033C427.937 518.216 428.005 518.362 428.139 518.474C428.274 518.585 428.492 518.676 428.793 518.747L429.659 518.946C430.161 519.062 430.535 519.241 430.782 519.482C431.028 519.724 431.151 520.037 431.151 520.423C431.151 520.75 431.056 521.041 430.867 521.297C430.68 521.55 430.418 521.749 430.082 521.893C429.748 522.038 429.361 522.11 428.921 522.11C428.31 522.11 427.812 521.98 427.426 521.719C427.04 521.457 426.803 521.084 426.715 520.601L427.742 520.445C427.806 520.712 427.937 520.915 428.136 521.052C428.335 521.187 428.594 521.254 428.914 521.254C429.262 521.254 429.54 521.182 429.748 521.038C429.956 520.891 430.061 520.712 430.061 520.501C430.061 520.331 429.997 520.188 429.869 520.072C429.743 519.956 429.55 519.868 429.29 519.809L428.367 519.607C427.858 519.491 427.481 519.306 427.237 519.053C426.996 518.799 426.875 518.478 426.875 518.09C426.875 517.768 426.965 517.487 427.145 517.245C427.325 517.004 427.574 516.815 427.891 516.68C428.208 516.543 428.572 516.474 428.981 516.474C429.571 516.474 430.035 516.602 430.373 516.858C430.712 517.111 430.935 517.451 431.044 517.877ZM437.262 522.11C436.734 522.11 436.28 521.991 435.899 521.751C435.52 521.51 435.229 521.177 435.025 520.754C434.822 520.33 434.72 519.844 434.72 519.298C434.72 518.744 434.824 518.255 435.032 517.831C435.241 517.405 435.534 517.072 435.913 516.833C436.292 516.594 436.738 516.474 437.252 516.474C437.666 516.474 438.035 516.551 438.36 516.705C438.684 516.857 438.946 517.07 439.144 517.344C439.346 517.619 439.465 517.94 439.503 518.307H438.47C438.413 518.051 438.283 517.831 438.079 517.646C437.878 517.462 437.608 517.369 437.269 517.369C436.974 517.369 436.714 517.447 436.492 517.604C436.272 517.758 436.1 517.978 435.977 518.264C435.854 518.548 435.792 518.884 435.792 519.273C435.792 519.67 435.853 520.014 435.973 520.303C436.094 520.591 436.264 520.815 436.485 520.974C436.707 521.132 436.969 521.212 437.269 521.212C437.471 521.212 437.653 521.175 437.816 521.102C437.982 521.026 438.121 520.918 438.232 520.778C438.345 520.639 438.425 520.471 438.47 520.274H439.503C439.465 520.627 439.35 520.942 439.159 521.219C438.967 521.496 438.71 521.714 438.388 521.872C438.068 522.031 437.693 522.11 437.262 522.11ZM444.094 519.738V516.545H445.159V522H444.115V521.055H444.058C443.933 521.347 443.732 521.589 443.455 521.783C443.18 521.975 442.838 522.071 442.428 522.071C442.078 522.071 441.768 521.994 441.498 521.84C441.23 521.684 441.02 521.453 440.866 521.148C440.714 520.842 440.639 520.465 440.639 520.015V516.545H441.7V519.887C441.7 520.259 441.803 520.555 442.009 520.775C442.215 520.995 442.483 521.105 442.812 521.105C443.011 521.105 443.208 521.055 443.405 520.956C443.604 520.857 443.768 520.706 443.899 520.505C444.031 520.304 444.096 520.048 444.094 519.738ZM446.586 522V516.545H447.612V517.412H447.669C447.768 517.118 447.944 516.888 448.195 516.719C448.448 516.549 448.734 516.464 449.054 516.464C449.12 516.464 449.198 516.466 449.288 516.471C449.381 516.476 449.453 516.482 449.505 516.489V517.504C449.462 517.492 449.387 517.479 449.278 517.465C449.169 517.449 449.06 517.44 448.951 517.44C448.7 517.44 448.476 517.494 448.28 517.6C448.086 517.704 447.932 517.85 447.818 518.037C447.704 518.222 447.648 518.432 447.648 518.669V522H446.586ZM450.424 522V516.545H451.45V517.412H451.507C451.606 517.118 451.781 516.888 452.032 516.719C452.286 516.549 452.572 516.464 452.892 516.464C452.958 516.464 453.036 516.466 453.126 516.471C453.218 516.476 453.291 516.482 453.343 516.489V517.504C453.3 517.492 453.224 517.479 453.116 517.465C453.007 517.449 452.898 517.44 452.789 517.44C452.538 517.44 452.314 517.494 452.118 517.6C451.924 517.704 451.77 517.85 451.656 518.037C451.542 518.222 451.486 518.432 451.486 518.669V522H450.424ZM456.417 522.11C455.88 522.11 455.417 521.995 455.029 521.766C454.643 521.534 454.344 521.208 454.134 520.789C453.925 520.368 453.821 519.874 453.821 519.308C453.821 518.75 453.925 518.257 454.134 517.831C454.344 517.405 454.638 517.072 455.014 516.833C455.393 516.594 455.836 516.474 456.343 516.474C456.65 516.474 456.949 516.525 457.237 516.627C457.526 516.729 457.786 516.889 458.015 517.107C458.245 517.324 458.426 517.607 458.559 517.955C458.691 518.301 458.757 518.721 458.757 519.216V519.592H454.421V518.797H457.717C457.717 518.518 457.66 518.27 457.546 518.055C457.433 517.837 457.273 517.665 457.067 517.54C456.863 517.414 456.624 517.352 456.35 517.352C456.051 517.352 455.791 517.425 455.568 517.572C455.348 517.716 455.178 517.906 455.057 518.14C454.939 518.372 454.88 518.624 454.88 518.896V519.518C454.88 519.882 454.943 520.192 455.071 520.448C455.201 520.704 455.383 520.899 455.615 521.034C455.847 521.167 456.118 521.233 456.428 521.233C456.629 521.233 456.813 521.205 456.978 521.148C457.144 521.089 457.287 521.001 457.408 520.885C457.529 520.769 457.621 520.626 457.685 520.455L458.69 520.636C458.609 520.932 458.465 521.192 458.257 521.414C458.051 521.634 457.791 521.806 457.479 521.929C457.169 522.05 456.815 522.11 456.417 522.11ZM460.997 518.761V522H459.935V516.545H460.955V517.433H461.022C461.148 517.144 461.344 516.912 461.612 516.737C461.881 516.562 462.221 516.474 462.631 516.474C463.002 516.474 463.328 516.553 463.607 516.709C463.887 516.863 464.103 517.092 464.257 517.398C464.411 517.703 464.488 518.081 464.488 518.531V522H463.426V518.658C463.426 518.263 463.323 517.954 463.117 517.732C462.911 517.507 462.628 517.394 462.269 517.394C462.022 517.394 461.803 517.447 461.612 517.554C461.422 517.661 461.272 517.817 461.161 518.023C461.052 518.226 460.997 518.473 460.997 518.761ZM468.458 516.545V517.398H465.479V516.545H468.458ZM466.278 515.239H467.34V520.398C467.34 520.604 467.37 520.759 467.432 520.864C467.493 520.965 467.573 521.035 467.67 521.073C467.769 521.109 467.877 521.126 467.993 521.126C468.078 521.126 468.153 521.121 468.217 521.109C468.281 521.097 468.33 521.087 468.366 521.08L468.558 521.957C468.496 521.981 468.408 522.005 468.295 522.028C468.181 522.054 468.039 522.069 467.869 522.071C467.589 522.076 467.329 522.026 467.087 521.922C466.846 521.818 466.651 521.657 466.502 521.439C466.352 521.221 466.278 520.948 466.278 520.619V515.239ZM470.812 514.727V522H469.75V514.727H470.812ZM472.911 524.045C472.753 524.045 472.608 524.032 472.478 524.006C472.348 523.983 472.251 523.957 472.187 523.928L472.443 523.058C472.637 523.11 472.81 523.133 472.961 523.126C473.113 523.119 473.246 523.062 473.362 522.955C473.481 522.849 473.585 522.675 473.675 522.433L473.806 522.071L471.81 516.545H472.947L474.328 520.778H474.385L475.766 516.545H476.906L474.658 522.728C474.554 523.012 474.422 523.252 474.261 523.449C474.1 523.648 473.908 523.797 473.685 523.896C473.463 523.996 473.205 524.045 472.911 524.045ZM481.612 518.761V522H480.551V516.545H481.57V517.433H481.637C481.763 517.144 481.959 516.912 482.227 516.737C482.497 516.562 482.836 516.474 483.246 516.474C483.618 516.474 483.943 516.553 484.223 516.709C484.502 516.863 484.719 517.092 484.872 517.398C485.026 517.703 485.103 518.081 485.103 518.531V522H484.041V518.658C484.041 518.263 483.938 517.954 483.733 517.732C483.527 517.507 483.244 517.394 482.884 517.394C482.638 517.394 482.419 517.447 482.227 517.554C482.037 517.661 481.887 517.817 481.776 518.023C481.667 518.226 481.612 518.473 481.612 518.761ZM488.825 522.11C488.313 522.11 487.867 521.993 487.486 521.759C487.105 521.524 486.809 521.196 486.598 520.775C486.388 520.353 486.282 519.861 486.282 519.298C486.282 518.732 486.388 518.237 486.598 517.813C486.809 517.389 487.105 517.06 487.486 516.826C487.867 516.592 488.313 516.474 488.825 516.474C489.336 516.474 489.782 516.592 490.164 516.826C490.545 517.06 490.841 517.389 491.051 517.813C491.262 518.237 491.367 518.732 491.367 519.298C491.367 519.861 491.262 520.353 491.051 520.775C490.841 521.196 490.545 521.524 490.164 521.759C489.782 521.993 489.336 522.11 488.825 522.11ZM488.828 521.219C489.16 521.219 489.434 521.131 489.652 520.956C489.87 520.781 490.031 520.548 490.135 520.256C490.242 519.965 490.295 519.644 490.295 519.294C490.295 518.946 490.242 518.626 490.135 518.335C490.031 518.042 489.87 517.806 489.652 517.629C489.434 517.451 489.16 517.362 488.828 517.362C488.495 517.362 488.218 517.451 487.997 517.629C487.78 517.806 487.617 518.042 487.511 518.335C487.407 518.626 487.355 518.946 487.355 519.294C487.355 519.644 487.407 519.965 487.511 520.256C487.617 520.548 487.78 520.781 487.997 520.956C488.218 521.131 488.495 521.219 488.828 521.219ZM495.099 516.545V517.398H492.119V516.545H495.099ZM492.918 515.239H493.98V520.398C493.98 520.604 494.011 520.759 494.073 520.864C494.134 520.965 494.213 521.035 494.31 521.073C494.41 521.109 494.518 521.126 494.634 521.126C494.719 521.126 494.793 521.121 494.857 521.109C494.921 521.097 494.971 521.087 495.006 521.08L495.198 521.957C495.137 521.981 495.049 522.005 494.935 522.028C494.822 522.054 494.68 522.069 494.509 522.071C494.23 522.076 493.97 522.026 493.728 521.922C493.487 521.818 493.291 521.657 493.142 521.439C492.993 521.221 492.918 520.948 492.918 520.619V515.239ZM500.507 522.121C500.162 522.121 499.849 522.057 499.57 521.929C499.29 521.799 499.069 521.611 498.906 521.364C498.745 521.118 498.664 520.816 498.664 520.459C498.664 520.151 498.723 519.898 498.842 519.699C498.96 519.5 499.12 519.343 499.321 519.227C499.522 519.111 499.747 519.023 499.996 518.964C500.244 518.905 500.498 518.86 500.756 518.829C501.082 518.791 501.348 518.76 501.551 518.737C501.755 518.71 501.903 518.669 501.995 518.612C502.087 518.555 502.134 518.463 502.134 518.335V518.31C502.134 518 502.046 517.76 501.871 517.589C501.698 517.419 501.44 517.334 501.097 517.334C500.739 517.334 500.457 517.413 500.252 517.572C500.048 517.728 499.907 517.902 499.829 518.094L498.831 517.866C498.949 517.535 499.122 517.268 499.35 517.064C499.579 516.858 499.843 516.709 500.141 516.616C500.44 516.522 500.753 516.474 501.082 516.474C501.3 516.474 501.531 516.5 501.775 516.553C502.021 516.602 502.251 516.695 502.464 516.83C502.679 516.964 502.856 517.157 502.993 517.408C503.13 517.657 503.199 517.98 503.199 518.378V522H502.162V521.254H502.119C502.051 521.392 501.948 521.527 501.81 521.659C501.673 521.792 501.497 521.902 501.281 521.989C501.066 522.077 500.808 522.121 500.507 522.121ZM500.738 521.268C501.032 521.268 501.283 521.21 501.491 521.094C501.702 520.978 501.861 520.827 501.97 520.64C502.082 520.451 502.137 520.248 502.137 520.033V519.33C502.099 519.367 502.026 519.403 501.917 519.436C501.81 519.467 501.689 519.494 501.551 519.518C501.414 519.539 501.28 519.559 501.15 519.578C501.02 519.595 500.911 519.609 500.823 519.621C500.617 519.647 500.429 519.691 500.259 519.752C500.091 519.814 499.956 519.902 499.854 520.018C499.754 520.132 499.705 520.284 499.705 520.473C499.705 520.736 499.802 520.935 499.996 521.07C500.19 521.202 500.437 521.268 500.738 521.268ZM509.084 516.545L507.106 522H505.97L503.988 516.545H505.128L506.509 520.743H506.566L507.944 516.545H509.084ZM511.513 522.121C511.167 522.121 510.855 522.057 510.576 521.929C510.296 521.799 510.075 521.611 509.911 521.364C509.751 521.118 509.67 520.816 509.67 520.459C509.67 520.151 509.729 519.898 509.848 519.699C509.966 519.5 510.126 519.343 510.327 519.227C510.528 519.111 510.753 519.023 511.002 518.964C511.25 518.905 511.504 518.86 511.762 518.829C512.088 518.791 512.353 518.76 512.557 518.737C512.761 518.71 512.909 518.669 513.001 518.612C513.093 518.555 513.139 518.463 513.139 518.335V518.31C513.139 518 513.052 517.76 512.877 517.589C512.704 517.419 512.446 517.334 512.103 517.334C511.745 517.334 511.463 517.413 511.257 517.572C511.054 517.728 510.913 517.902 510.835 518.094L509.837 517.866C509.955 517.535 510.128 517.268 510.355 517.064C510.585 516.858 510.849 516.709 511.147 516.616C511.446 516.522 511.759 516.474 512.088 516.474C512.306 516.474 512.537 516.5 512.781 516.553C513.027 516.602 513.257 516.695 513.47 516.83C513.685 516.964 513.862 517.157 513.999 517.408C514.136 517.657 514.205 517.98 514.205 518.378V522H513.168V521.254H513.125C513.057 521.392 512.954 521.527 512.816 521.659C512.679 521.792 512.503 521.902 512.287 521.989C512.072 522.077 511.814 522.121 511.513 522.121ZM511.744 521.268C512.037 521.268 512.288 521.21 512.497 521.094C512.707 520.978 512.867 520.827 512.976 520.64C513.087 520.451 513.143 520.248 513.143 520.033V519.33C513.105 519.367 513.032 519.403 512.923 519.436C512.816 519.467 512.694 519.494 512.557 519.518C512.42 519.539 512.286 519.559 512.156 519.578C512.026 519.595 511.917 519.609 511.829 519.621C511.623 519.647 511.435 519.691 511.264 519.752C511.096 519.814 510.961 519.902 510.86 520.018C510.76 520.132 510.71 520.284 510.71 520.473C510.71 520.736 510.808 520.935 511.002 521.07C511.196 521.202 511.443 521.268 511.744 521.268ZM515.619 522V516.545H516.681V522H515.619ZM516.155 515.704C515.971 515.704 515.812 515.642 515.679 515.519C515.549 515.394 515.484 515.245 515.484 515.072C515.484 514.897 515.549 514.747 515.679 514.624C515.812 514.499 515.971 514.436 516.155 514.436C516.34 514.436 516.497 514.499 516.628 514.624C516.76 514.747 516.826 514.897 516.826 515.072C516.826 515.245 516.76 515.394 516.628 515.519C516.497 515.642 516.34 515.704 516.155 515.704ZM519.171 514.727V522H518.109V514.727H519.171ZM522.187 522.121C521.841 522.121 521.529 522.057 521.249 521.929C520.97 521.799 520.749 521.611 520.585 521.364C520.424 521.118 520.344 520.816 520.344 520.459C520.344 520.151 520.403 519.898 520.521 519.699C520.64 519.5 520.8 519.343 521.001 519.227C521.202 519.111 521.427 519.023 521.676 518.964C521.924 518.905 522.177 518.86 522.435 518.829C522.762 518.791 523.027 518.76 523.231 518.737C523.435 518.71 523.582 518.669 523.675 518.612C523.767 518.555 523.813 518.463 523.813 518.335V518.31C523.813 518 523.726 517.76 523.551 517.589C523.378 517.419 523.12 517.334 522.776 517.334C522.419 517.334 522.137 517.413 521.931 517.572C521.728 517.728 521.587 517.902 521.509 518.094L520.511 517.866C520.629 517.535 520.802 517.268 521.029 517.064C521.259 516.858 521.523 516.709 521.821 516.616C522.119 516.522 522.433 516.474 522.762 516.474C522.98 516.474 523.211 516.5 523.455 516.553C523.701 516.602 523.93 516.695 524.144 516.83C524.359 516.964 524.535 517.157 524.673 517.408C524.81 517.657 524.879 517.98 524.879 518.378V522H523.842V521.254H523.799C523.73 521.392 523.627 521.527 523.49 521.659C523.353 521.792 523.176 521.902 522.961 521.989C522.746 522.077 522.488 522.121 522.187 522.121ZM522.418 521.268C522.711 521.268 522.962 521.21 523.171 521.094C523.381 520.978 523.541 520.827 523.65 520.64C523.761 520.451 523.817 520.248 523.817 520.033V519.33C523.779 519.367 523.706 519.403 523.597 519.436C523.49 519.467 523.368 519.494 523.231 519.518C523.094 519.539 522.96 519.559 522.83 519.578C522.699 519.595 522.591 519.609 522.503 519.621C522.297 519.647 522.109 519.691 521.938 519.752C521.77 519.814 521.635 519.902 521.533 520.018C521.434 520.132 521.384 520.284 521.384 520.473C521.384 520.736 521.481 520.935 521.676 521.07C521.87 521.202 522.117 521.268 522.418 521.268ZM526.378 522V514.727H527.44V517.43H527.504C527.565 517.316 527.654 517.185 527.77 517.036C527.886 516.886 528.047 516.756 528.253 516.645C528.459 516.531 528.731 516.474 529.07 516.474C529.51 516.474 529.903 516.586 530.249 516.808C530.594 517.031 530.866 517.352 531.062 517.771C531.261 518.19 531.36 518.694 531.36 519.283C531.36 519.873 531.262 520.378 531.066 520.8C530.869 521.219 530.599 521.542 530.256 521.769C529.913 521.994 529.521 522.107 529.081 522.107C528.749 522.107 528.478 522.051 528.267 521.94C528.059 521.828 527.896 521.698 527.777 521.549C527.659 521.4 527.568 521.267 527.504 521.151H527.415V522H526.378ZM527.419 519.273C527.419 519.656 527.474 519.992 527.585 520.281C527.697 520.57 527.858 520.796 528.068 520.96C528.279 521.121 528.537 521.201 528.843 521.201C529.16 521.201 529.425 521.117 529.638 520.949C529.851 520.778 530.012 520.548 530.121 520.256C530.232 519.965 530.288 519.637 530.288 519.273C530.288 518.913 530.233 518.59 530.125 518.303C530.018 518.017 529.857 517.791 529.642 517.625C529.429 517.459 529.162 517.376 528.843 517.376C528.535 517.376 528.274 517.456 528.061 517.614C527.851 517.773 527.691 517.994 527.582 518.278C527.473 518.562 527.419 518.894 527.419 519.273ZM533.614 514.727V522H532.553V514.727H533.614ZM537.394 522.11C536.856 522.11 536.393 521.995 536.005 521.766C535.619 521.534 535.321 521.208 535.11 520.789C534.902 520.368 534.798 519.874 534.798 519.308C534.798 518.75 534.902 518.257 535.11 517.831C535.321 517.405 535.615 517.072 535.991 516.833C536.37 516.594 536.813 516.474 537.319 516.474C537.627 516.474 537.925 516.525 538.214 516.627C538.503 516.729 538.762 516.889 538.992 517.107C539.221 517.324 539.402 517.607 539.535 517.955C539.668 518.301 539.734 518.721 539.734 519.216V519.592H535.398V518.797H538.693C538.693 518.518 538.637 518.27 538.523 518.055C538.409 517.837 538.25 517.665 538.044 517.54C537.84 517.414 537.601 517.352 537.326 517.352C537.028 517.352 536.768 517.425 536.545 517.572C536.325 517.716 536.154 517.906 536.034 518.14C535.915 518.372 535.856 518.624 535.856 518.896V519.518C535.856 519.882 535.92 520.192 536.048 520.448C536.178 520.704 536.359 520.899 536.591 521.034C536.823 521.167 537.094 521.233 537.404 521.233C537.606 521.233 537.789 521.205 537.955 521.148C538.121 521.089 538.264 521.001 538.384 520.885C538.505 520.769 538.598 520.626 538.661 520.455L539.666 520.636C539.586 520.932 539.442 521.192 539.233 521.414C539.027 521.634 538.768 521.806 538.456 521.929C538.145 522.05 537.791 522.11 537.394 522.11ZM545.856 522.11C545.345 522.11 544.898 521.993 544.517 521.759C544.136 521.524 543.84 521.196 543.63 520.775C543.419 520.353 543.313 519.861 543.313 519.298C543.313 518.732 543.419 518.237 543.63 517.813C543.84 517.389 544.136 517.06 544.517 516.826C544.898 516.592 545.345 516.474 545.856 516.474C546.367 516.474 546.814 516.592 547.195 516.826C547.576 517.06 547.872 517.389 548.083 517.813C548.293 518.237 548.399 518.732 548.399 519.298C548.399 519.861 548.293 520.353 548.083 520.775C547.872 521.196 547.576 521.524 547.195 521.759C546.814 521.993 546.367 522.11 545.856 522.11ZM545.86 521.219C546.191 521.219 546.466 521.131 546.684 520.956C546.901 520.781 547.062 520.548 547.166 520.256C547.273 519.965 547.326 519.644 547.326 519.294C547.326 518.946 547.273 518.626 547.166 518.335C547.062 518.042 546.901 517.806 546.684 517.629C546.466 517.451 546.191 517.362 545.86 517.362C545.526 517.362 545.249 517.451 545.029 517.629C544.811 517.806 544.649 518.042 544.542 518.335C544.438 518.626 544.386 518.946 544.386 519.294C544.386 519.644 544.438 519.965 544.542 520.256C544.649 520.548 544.811 520.781 545.029 520.956C545.249 521.131 545.526 521.219 545.86 521.219ZM550.646 518.761V522H549.584V516.545H550.603V517.433H550.671C550.796 517.144 550.993 516.912 551.26 516.737C551.53 516.562 551.87 516.474 552.279 516.474C552.651 516.474 552.976 516.553 553.256 516.709C553.535 516.863 553.752 517.092 553.906 517.398C554.06 517.703 554.136 518.081 554.136 518.531V522H553.075V518.658C553.075 518.263 552.972 517.954 552.766 517.732C552.56 517.507 552.277 517.394 551.917 517.394C551.671 517.394 551.452 517.447 551.26 517.554C551.071 517.661 550.92 517.817 550.809 518.023C550.7 518.226 550.646 518.473 550.646 518.761ZM558.207 522V516.545H559.226V517.433H559.294C559.407 517.133 559.593 516.898 559.851 516.73C560.109 516.56 560.418 516.474 560.778 516.474C561.143 516.474 561.448 516.56 561.694 516.73C561.943 516.901 562.126 517.135 562.245 517.433H562.301C562.432 517.142 562.639 516.91 562.923 516.737C563.207 516.562 563.545 516.474 563.938 516.474C564.433 516.474 564.837 516.629 565.149 516.94C565.464 517.25 565.622 517.717 565.622 518.342V522H564.56V518.442C564.56 518.072 564.459 517.805 564.258 517.639C564.057 517.473 563.817 517.391 563.537 517.391C563.192 517.391 562.923 517.497 562.731 517.71C562.539 517.921 562.443 518.192 562.443 518.523V522H561.385V518.374C561.385 518.078 561.293 517.84 561.108 517.661C560.924 517.481 560.683 517.391 560.387 517.391C560.186 517.391 560 517.444 559.83 517.55C559.662 517.655 559.526 517.8 559.421 517.987C559.32 518.174 559.269 518.391 559.269 518.637V522H558.207ZM568.632 522.121C568.287 522.121 567.974 522.057 567.695 521.929C567.415 521.799 567.194 521.611 567.031 521.364C566.87 521.118 566.789 520.816 566.789 520.459C566.789 520.151 566.848 519.898 566.967 519.699C567.085 519.5 567.245 519.343 567.446 519.227C567.647 519.111 567.872 519.023 568.121 518.964C568.369 518.905 568.623 518.86 568.881 518.829C569.207 518.791 569.473 518.76 569.676 518.737C569.88 518.71 570.028 518.669 570.12 518.612C570.212 518.555 570.259 518.463 570.259 518.335V518.31C570.259 518 570.171 517.76 569.996 517.589C569.823 517.419 569.565 517.334 569.222 517.334C568.864 517.334 568.582 517.413 568.377 517.572C568.173 517.728 568.032 517.902 567.954 518.094L566.956 517.866C567.074 517.535 567.247 517.268 567.475 517.064C567.704 516.858 567.968 516.709 568.266 516.616C568.565 516.522 568.878 516.474 569.207 516.474C569.425 516.474 569.656 516.5 569.9 516.553C570.146 516.602 570.376 516.695 570.589 516.83C570.804 516.964 570.981 517.157 571.118 517.408C571.255 517.657 571.324 517.98 571.324 518.378V522H570.287V521.254H570.244C570.176 521.392 570.073 521.527 569.935 521.659C569.798 521.792 569.622 521.902 569.406 521.989C569.191 522.077 568.933 522.121 568.632 522.121ZM568.863 521.268C569.157 521.268 569.408 521.21 569.616 521.094C569.827 520.978 569.986 520.827 570.095 520.64C570.207 520.451 570.262 520.248 570.262 520.033V519.33C570.224 519.367 570.151 519.403 570.042 519.436C569.935 519.467 569.814 519.494 569.676 519.518C569.539 519.539 569.405 519.559 569.275 519.578C569.145 519.595 569.036 519.609 568.948 519.621C568.742 519.647 568.554 519.691 568.384 519.752C568.216 519.814 568.081 519.902 567.979 520.018C567.879 520.132 567.83 520.284 567.83 520.473C567.83 520.736 567.927 520.935 568.121 521.07C568.315 521.202 568.562 521.268 568.863 521.268ZM575.036 522.11C574.508 522.11 574.053 521.991 573.672 521.751C573.293 521.51 573.002 521.177 572.799 520.754C572.595 520.33 572.493 519.844 572.493 519.298C572.493 518.744 572.597 518.255 572.806 517.831C573.014 517.405 573.308 517.072 573.686 516.833C574.065 516.594 574.511 516.474 575.025 516.474C575.439 516.474 575.809 516.551 576.133 516.705C576.457 516.857 576.719 517.07 576.918 517.344C577.119 517.619 577.239 517.94 577.277 518.307H576.243C576.186 518.051 576.056 517.831 575.853 517.646C575.651 517.462 575.381 517.369 575.043 517.369C574.747 517.369 574.488 517.447 574.265 517.604C574.045 517.758 573.873 517.978 573.75 518.264C573.627 518.548 573.566 518.884 573.566 519.273C573.566 519.67 573.626 520.014 573.747 520.303C573.867 520.591 574.038 520.815 574.258 520.974C574.481 521.132 574.742 521.212 575.043 521.212C575.244 521.212 575.426 521.175 575.59 521.102C575.755 521.026 575.894 520.918 576.005 520.778C576.119 520.639 576.198 520.471 576.243 520.274H577.277C577.239 520.627 577.124 520.942 576.932 521.219C576.74 521.496 576.483 521.714 576.161 521.872C575.842 522.031 575.467 522.11 575.036 522.11ZM584.815 518.364C584.815 519.14 584.673 519.808 584.389 520.366C584.104 520.923 583.715 521.351 583.22 521.652C582.728 521.95 582.168 522.099 581.541 522.099C580.911 522.099 580.349 521.95 579.854 521.652C579.361 521.351 578.973 520.922 578.689 520.363C578.405 519.804 578.263 519.138 578.263 518.364C578.263 517.587 578.405 516.921 578.689 516.364C578.973 515.806 579.361 515.377 579.854 515.079C580.349 514.778 580.911 514.628 581.541 514.628C582.168 514.628 582.728 514.778 583.22 515.079C583.715 515.377 584.104 515.806 584.389 516.364C584.673 516.921 584.815 517.587 584.815 518.364ZM583.728 518.364C583.728 517.772 583.632 517.273 583.44 516.869C583.251 516.461 582.991 516.154 582.659 515.945C582.33 515.735 581.957 515.629 581.541 515.629C581.122 515.629 580.747 515.735 580.418 515.945C580.089 516.154 579.829 516.461 579.637 516.869C579.448 517.273 579.353 517.772 579.353 518.364C579.353 518.955 579.448 519.455 579.637 519.862C579.829 520.267 580.089 520.575 580.418 520.786C580.747 520.994 581.122 521.098 581.541 521.098C581.957 521.098 582.33 520.994 582.659 520.786C582.991 520.575 583.251 520.267 583.44 519.862C583.632 519.455 583.728 518.955 583.728 518.364ZM590.149 516.638C590.112 516.302 589.955 516.041 589.681 515.857C589.406 515.67 589.06 515.576 588.644 515.576C588.345 515.576 588.087 515.623 587.87 515.718C587.652 515.81 587.483 515.938 587.362 516.102C587.243 516.263 587.184 516.446 587.184 516.652C587.184 516.825 587.224 516.974 587.305 517.099C587.388 517.225 587.496 517.33 587.628 517.415C587.763 517.498 587.907 517.568 588.061 517.625C588.215 517.679 588.363 517.724 588.505 517.76L589.215 517.945C589.447 518.001 589.685 518.078 589.929 518.175C590.173 518.272 590.399 518.4 590.608 518.559C590.816 518.718 590.984 518.914 591.112 519.148C591.242 519.383 591.307 519.663 591.307 519.99C591.307 520.402 591.201 520.768 590.987 521.087C590.777 521.407 590.47 521.659 590.068 521.844C589.668 522.028 589.184 522.121 588.615 522.121C588.071 522.121 587.6 522.034 587.202 521.862C586.804 521.689 586.493 521.444 586.268 521.126C586.043 520.807 585.919 520.428 585.895 519.99H586.996C587.017 520.253 587.103 520.472 587.252 520.647C587.403 520.82 587.596 520.949 587.831 521.034C588.067 521.117 588.326 521.158 588.608 521.158C588.918 521.158 589.194 521.11 589.436 521.013C589.679 520.913 589.871 520.776 590.011 520.601C590.151 520.423 590.22 520.216 590.22 519.979C590.22 519.764 590.159 519.588 590.036 519.45C589.915 519.313 589.751 519.199 589.542 519.109C589.336 519.019 589.103 518.94 588.843 518.871L587.983 518.637C587.401 518.478 586.939 518.245 586.598 517.938C586.26 517.63 586.09 517.223 586.09 516.716C586.09 516.297 586.204 515.931 586.431 515.619C586.659 515.306 586.966 515.063 587.355 514.891C587.743 514.715 588.181 514.628 588.669 514.628C589.161 514.628 589.595 514.714 589.972 514.887C590.351 515.06 590.649 515.298 590.867 515.601C591.085 515.902 591.198 516.247 591.208 516.638H590.149Z" fill="#343434"/>
</g>
<defs>
<clipPath id="clip0_522_215">
<rect width="960" height="540" fill="white"/>
</clipPath>
<clipPath id="clip1_522_215">
<path d="M156 257C156 250.373 161.373 245 168 245H791C797.627 245 803 250.373 803 257V274H156V257Z" fill="white"/>
</clipPath>
</defs>
</svg>
