<svg width="960" height="540" viewBox="0 0 960 540" fill="none" xmlns="http://www.w3.org/2000/svg">
<g clip-path="url(#clip0_522_215)">
<path d="M156 257C156 250.373 161.373 245 168 245H791C797.627 245 803 250.373 803 257V558C803 564.627 797.627 570 791 570H168C161.373 570 156 564.627 156 558V257Z" fill="black"/>
<path d="M166.853 286.353C166.853 285.62 166.78 285.031 166.633 284.587C166.491 284.142 166.298 283.804 166.053 283.573C165.813 283.342 165.544 283.187 165.247 283.107C164.953 283.027 164.653 282.987 164.347 282.987H163.5V289.827H164.353C164.673 289.827 164.982 289.776 165.28 289.673C165.578 289.571 165.844 289.393 166.08 289.14C166.32 288.887 166.509 288.536 166.647 288.087C166.784 287.633 166.853 287.056 166.853 286.353ZM168.48 286.353C168.48 287.113 168.398 287.762 168.233 288.3C168.073 288.838 167.851 289.284 167.567 289.64C167.287 289.991 166.962 290.267 166.593 290.467C166.229 290.662 165.842 290.8 165.433 290.88C165.024 290.96 164.616 291 164.207 291H161.953V281.8H164.053C164.613 281.8 165.156 281.86 165.68 281.98C166.209 282.1 166.682 282.322 167.1 282.647C167.522 282.971 167.858 283.431 168.107 284.027C168.356 284.622 168.48 285.398 168.48 286.353ZM171.425 287.96C171.456 288.44 171.558 288.833 171.731 289.14C171.905 289.442 172.131 289.664 172.411 289.807C172.696 289.949 173.007 290.02 173.345 290.02C173.691 290.02 174.011 289.967 174.305 289.86C174.598 289.753 174.894 289.602 175.191 289.407L175.838 290.3C175.509 290.567 175.125 290.78 174.685 290.94C174.245 291.1 173.774 291.18 173.271 291.18C172.542 291.18 171.925 291.024 171.418 290.713C170.916 290.402 170.534 289.969 170.271 289.413C170.009 288.858 169.878 288.216 169.878 287.487C169.878 286.78 170.007 286.149 170.265 285.593C170.522 285.033 170.891 284.591 171.371 284.267C171.851 283.938 172.425 283.773 173.091 283.773C173.718 283.773 174.256 283.916 174.705 284.2C175.158 284.484 175.507 284.889 175.751 285.413C176 285.933 176.125 286.56 176.125 287.293C176.125 287.413 176.12 287.533 176.111 287.653C176.107 287.769 176.1 287.871 176.091 287.96H171.425ZM173.105 284.88C172.638 284.88 172.251 285.047 171.945 285.38C171.642 285.713 171.467 286.233 171.418 286.94H174.678C174.665 286.278 174.522 285.769 174.251 285.413C173.985 285.058 173.602 284.88 173.105 284.88ZM180.743 290.033C181.209 290.033 181.581 289.951 181.856 289.787C182.132 289.618 182.269 289.387 182.269 289.093C182.269 288.902 182.229 288.74 182.149 288.607C182.069 288.469 181.909 288.344 181.669 288.233C181.429 288.118 181.065 287.998 180.576 287.873C180.114 287.753 179.707 287.611 179.356 287.447C179.009 287.282 178.741 287.069 178.549 286.807C178.358 286.544 178.263 286.207 178.263 285.793C178.263 285.389 178.376 285.036 178.603 284.733C178.829 284.431 179.154 284.196 179.576 284.027C180.003 283.858 180.503 283.773 181.076 283.773C181.667 283.773 182.183 283.851 182.623 284.007C183.063 284.162 183.438 284.356 183.749 284.587L183.123 285.527C182.847 285.344 182.545 285.196 182.216 285.08C181.892 284.964 181.525 284.907 181.116 284.907C180.641 284.907 180.298 284.978 180.089 285.12C179.885 285.262 179.783 285.451 179.783 285.687C179.783 285.86 179.834 286.007 179.936 286.127C180.043 286.242 180.225 286.351 180.483 286.453C180.741 286.551 181.105 286.667 181.576 286.8C182.034 286.924 182.432 287.071 182.769 287.24C183.112 287.409 183.376 287.633 183.563 287.913C183.754 288.189 183.849 288.549 183.849 288.993C183.849 289.5 183.703 289.916 183.409 290.24C183.121 290.56 182.738 290.798 182.263 290.953C181.792 291.104 181.285 291.18 180.743 291.18C180.089 291.18 179.525 291.087 179.049 290.9C178.574 290.709 178.174 290.471 177.849 290.187L178.643 289.28C178.918 289.502 179.234 289.684 179.589 289.827C179.945 289.964 180.329 290.033 180.743 290.033ZM192.381 283.96L189.534 287.107L192.681 291H190.854L187.827 287.147L190.641 283.96H192.381ZM187.721 280.967V291H186.227V281.133L187.721 280.967ZM200.059 290.627C199.801 290.791 199.492 290.924 199.132 291.027C198.772 291.129 198.397 291.18 198.006 291.18C197.188 291.18 196.566 290.969 196.139 290.547C195.717 290.12 195.506 289.56 195.506 288.867V285.047H193.939V283.96H195.506V282.387L196.999 282.207V283.96H199.372L199.206 285.047H196.999V288.853C196.999 289.231 197.092 289.513 197.279 289.7C197.47 289.882 197.781 289.973 198.212 289.973C198.47 289.973 198.708 289.942 198.926 289.88C199.143 289.818 199.341 289.738 199.519 289.64L200.059 290.627ZM204.997 283.773C205.686 283.773 206.266 283.927 206.737 284.233C207.208 284.54 207.564 284.969 207.804 285.52C208.048 286.071 208.17 286.72 208.17 287.467C208.17 288.209 208.046 288.86 207.797 289.42C207.552 289.976 207.192 290.409 206.717 290.72C206.246 291.027 205.67 291.18 204.99 291.18C204.31 291.18 203.732 291.031 203.257 290.733C202.786 290.431 202.426 290.002 202.177 289.447C201.932 288.891 201.81 288.236 201.81 287.48C201.81 286.747 201.932 286.102 202.177 285.547C202.426 284.991 202.788 284.558 203.264 284.247C203.739 283.931 204.317 283.773 204.997 283.773ZM204.997 284.933C204.459 284.933 204.055 285.14 203.784 285.553C203.512 285.962 203.377 286.604 203.377 287.48C203.377 288.351 203.51 288.993 203.777 289.407C204.048 289.82 204.452 290.027 204.99 290.027C205.528 290.027 205.93 289.82 206.197 289.407C206.468 288.993 206.604 288.347 206.604 287.467C206.604 286.6 206.47 285.962 206.204 285.553C205.937 285.14 205.535 284.933 204.997 284.933ZM213.608 283.773C214.231 283.773 214.728 283.927 215.102 284.233C215.475 284.536 215.746 284.964 215.915 285.52C216.084 286.071 216.168 286.72 216.168 287.467C216.168 288.182 216.066 288.82 215.862 289.38C215.657 289.94 215.353 290.38 214.948 290.7C214.548 291.02 214.051 291.18 213.455 291.18C212.717 291.18 212.122 290.92 211.668 290.4V293.707L210.175 293.873V283.96H211.475L211.568 284.867C211.835 284.502 212.144 284.229 212.495 284.047C212.851 283.864 213.222 283.773 213.608 283.773ZM213.195 284.927C212.862 284.927 212.568 285.027 212.315 285.227C212.062 285.427 211.846 285.662 211.668 285.933V289.227C211.837 289.48 212.037 289.676 212.268 289.813C212.504 289.947 212.768 290.013 213.062 290.013C213.564 290.013 213.946 289.811 214.208 289.407C214.471 289.002 214.602 288.358 214.602 287.473C214.602 286.873 214.548 286.387 214.442 286.013C214.339 285.636 214.184 285.36 213.975 285.187C213.771 285.013 213.511 284.927 213.195 284.927ZM218.233 287.44V286.213H223.74V287.44H218.233ZM230.598 288.787H227.311L226.671 291H225.098L228.024 281.8H229.944L232.878 291H231.238L230.598 288.787ZM227.631 287.593H230.271L228.958 283L227.631 287.593ZM238.209 281.8V290.733H236.729V283.333L234.702 284.58L234.062 283.533L236.889 281.8H238.209ZM240.049 289.827V291H234.482V289.827H240.049ZM246.72 288.34C246.72 287.927 246.64 287.607 246.48 287.38C246.32 287.153 246.105 286.996 245.834 286.907C245.563 286.813 245.258 286.767 244.92 286.767H243.607V289.8H244.854C245.076 289.8 245.296 289.782 245.514 289.747C245.736 289.707 245.938 289.636 246.12 289.533C246.303 289.427 246.447 289.278 246.554 289.087C246.665 288.896 246.72 288.647 246.72 288.34ZM246.367 284.253C246.367 283.791 246.223 283.46 245.934 283.26C245.645 283.06 245.238 282.96 244.714 282.96H243.607V285.62H244.807C245.323 285.62 245.712 285.513 245.974 285.3C246.236 285.082 246.367 284.733 246.367 284.253ZM248.334 288.347C248.334 288.858 248.234 289.287 248.034 289.633C247.834 289.976 247.563 290.247 247.22 290.447C246.883 290.647 246.5 290.789 246.074 290.873C245.647 290.958 245.207 291 244.754 291H242.06V281.8H244.574C245.005 281.8 245.42 281.838 245.82 281.913C246.22 281.984 246.578 282.109 246.894 282.287C247.214 282.464 247.467 282.704 247.654 283.007C247.84 283.304 247.934 283.678 247.934 284.127C247.934 284.513 247.854 284.842 247.694 285.113C247.534 285.384 247.323 285.604 247.06 285.773C246.803 285.938 246.527 286.056 246.234 286.127C246.567 286.18 246.894 286.284 247.214 286.44C247.538 286.591 247.805 286.82 248.014 287.127C248.227 287.433 248.334 287.84 248.334 288.347ZM252.605 281.613C253.232 281.613 253.761 281.731 254.192 281.967C254.627 282.198 254.959 282.509 255.185 282.9C255.416 283.291 255.532 283.729 255.532 284.213C255.532 284.613 255.461 285.007 255.319 285.393C255.181 285.78 254.956 286.187 254.645 286.613C254.339 287.036 253.932 287.507 253.425 288.027C252.919 288.542 252.299 289.133 251.565 289.8H255.745L255.572 291H249.852V289.867C250.514 289.236 251.081 288.68 251.552 288.2C252.023 287.716 252.416 287.291 252.732 286.927C253.047 286.558 253.296 286.227 253.479 285.933C253.661 285.636 253.79 285.358 253.865 285.1C253.945 284.838 253.985 284.573 253.985 284.307C253.985 283.844 253.854 283.48 253.592 283.213C253.33 282.947 252.965 282.813 252.499 282.813C252.081 282.813 251.734 282.889 251.459 283.04C251.183 283.191 250.91 283.436 250.639 283.773L249.665 283.033C250.025 282.576 250.439 282.224 250.905 281.98C251.372 281.736 251.939 281.613 252.605 281.613ZM261.75 281.613C262.372 281.613 262.897 281.696 263.323 281.86C263.754 282.02 264.154 282.251 264.523 282.553L263.717 283.513C263.441 283.282 263.145 283.111 262.83 283C262.514 282.889 262.179 282.833 261.823 282.833C261.365 282.833 260.943 282.949 260.557 283.18C260.17 283.411 259.859 283.787 259.623 284.307C259.392 284.827 259.277 285.52 259.277 286.387C259.277 287.236 259.388 287.92 259.61 288.44C259.832 288.96 260.137 289.338 260.523 289.573C260.91 289.809 261.343 289.927 261.823 289.927C262.317 289.927 262.725 289.847 263.05 289.687C263.374 289.522 263.661 289.338 263.91 289.133L264.657 290.087C264.35 290.384 263.961 290.642 263.49 290.86C263.019 291.073 262.445 291.18 261.77 291.18C260.992 291.18 260.292 290.998 259.67 290.633C259.052 290.264 258.563 289.724 258.203 289.013C257.848 288.302 257.67 287.427 257.67 286.387C257.67 285.356 257.854 284.487 258.223 283.78C258.592 283.069 259.085 282.531 259.703 282.167C260.321 281.798 261.003 281.613 261.75 281.613ZM268.575 281.613C269.183 281.613 269.708 281.72 270.148 281.933C270.588 282.147 270.926 282.429 271.161 282.78C271.397 283.131 271.515 283.518 271.515 283.94C271.515 284.318 271.435 284.656 271.275 284.953C271.115 285.251 270.897 285.498 270.621 285.693C270.346 285.889 270.035 286.027 269.688 286.107C270.075 286.147 270.428 286.253 270.748 286.427C271.068 286.6 271.323 286.847 271.515 287.167C271.71 287.487 271.808 287.889 271.808 288.373C271.808 288.898 271.67 289.373 271.395 289.8C271.123 290.222 270.737 290.558 270.235 290.807C269.737 291.056 269.15 291.18 268.475 291.18C267.897 291.18 267.346 291.073 266.821 290.86C266.301 290.647 265.859 290.324 265.495 289.893L266.408 289.093C266.67 289.4 266.977 289.627 267.328 289.773C267.679 289.92 268.039 289.993 268.408 289.993C268.977 289.993 269.428 289.847 269.761 289.553C270.095 289.256 270.261 288.844 270.261 288.32C270.261 287.92 270.186 287.604 270.035 287.373C269.888 287.138 269.681 286.969 269.415 286.867C269.148 286.764 268.839 286.713 268.488 286.713H267.695L267.868 285.613H268.428C268.717 285.613 268.983 285.562 269.228 285.46C269.472 285.353 269.668 285.191 269.815 284.973C269.966 284.756 270.041 284.484 270.041 284.16C270.041 283.711 269.888 283.367 269.581 283.127C269.279 282.887 268.903 282.767 268.455 282.767C268.072 282.767 267.73 282.838 267.428 282.98C267.13 283.118 266.837 283.322 266.548 283.593L265.755 282.747C266.159 282.36 266.597 282.076 267.068 281.893C267.539 281.707 268.041 281.613 268.575 281.613Z" fill="#16C60C"/>
<path d="M275.766 289.973C275.766 289.649 275.882 289.371 276.113 289.14C276.344 288.904 276.628 288.787 276.966 288.787C277.308 288.787 277.593 288.904 277.819 289.14C278.05 289.371 278.166 289.649 278.166 289.973C278.166 290.307 278.05 290.591 277.819 290.827C277.593 291.062 277.308 291.18 276.966 291.18C276.628 291.18 276.344 291.062 276.113 290.827C275.882 290.591 275.766 290.307 275.766 289.973ZM275.766 285.24C275.766 285.022 275.819 284.822 275.926 284.64C276.033 284.458 276.177 284.313 276.359 284.207C276.542 284.1 276.744 284.047 276.966 284.047C277.308 284.047 277.593 284.164 277.819 284.4C278.05 284.631 278.166 284.911 278.166 285.24C278.166 285.569 278.05 285.853 277.819 286.093C277.593 286.329 277.308 286.447 276.966 286.447C276.628 286.447 276.344 286.329 276.113 286.093C275.882 285.853 275.766 285.569 275.766 285.24ZM299.918 291.39C300.425 290.935 301.075 290.584 301.855 290.324L302.024 289.908C301.439 289.934 300.932 290.012 300.568 290.116L302.414 285.696L299.229 287.217L300.295 283.824L299.749 283.694L298.345 288.192L301.361 286.775L300.074 289.921C299.905 289.596 299.619 289.206 299.216 288.751L299.047 289.167C299.424 289.908 299.645 290.623 299.697 291.299L299.918 291.39Z" fill="white"/>
<path d="M283.697 285.507C284.031 285.507 284.315 285.573 284.551 285.707C284.786 285.84 284.997 285.996 285.184 286.173C285.371 286.351 285.551 286.507 285.724 286.64C285.897 286.773 286.086 286.84 286.291 286.84C286.557 286.84 286.791 286.74 286.991 286.54C287.195 286.336 287.384 286.071 287.557 285.747L288.504 286.2C288.353 286.516 288.175 286.813 287.971 287.093C287.771 287.373 287.531 287.602 287.251 287.78C286.975 287.958 286.64 288.047 286.244 288.047C285.928 288.047 285.653 287.98 285.417 287.847C285.186 287.713 284.975 287.558 284.784 287.38C284.597 287.202 284.413 287.047 284.231 286.913C284.053 286.78 283.86 286.713 283.651 286.713C283.375 286.713 283.137 286.818 282.937 287.027C282.742 287.231 282.557 287.493 282.384 287.813L281.437 287.367C281.593 287.06 281.768 286.767 281.964 286.487C282.164 286.202 282.404 285.969 282.684 285.787C282.964 285.6 283.302 285.507 283.697 285.507ZM290.735 292.42L289.549 291.887L295.215 280.173L296.389 280.727L290.735 292.42Z" fill="#3B78FF"/>
<g clip-path="url(#clip1_522_215)">
<mask id="path-3-inside-1_522_215" fill="white">
<path d="M156 257C156 250.373 161.373 245 168 245H791C797.627 245 803 250.373 803 257V274H156V257Z"/>
</mask>
<path d="M156 257C156 250.373 161.373 245 168 245H791C797.627 245 803 250.373 803 257V274H156V257Z" fill="#F2EEF1"/>
<circle cx="175" cy="260" r="7" fill="#FA4F4C"/>
<circle cx="196" cy="260" r="7" fill="#FDB138"/>
<circle cx="217" cy="260" r="7" fill="#51C06A"/>
<path d="M451.233 256.909V258.017H447.226V256.909H451.233ZM448.324 264V256.087C448.324 255.644 448.421 255.276 448.615 254.984C448.809 254.689 449.066 254.469 449.386 254.324C449.706 254.176 450.054 254.102 450.429 254.102C450.706 254.102 450.943 254.125 451.14 254.172C451.337 254.215 451.484 254.255 451.579 254.292L451.256 255.409C451.191 255.39 451.108 255.369 451.007 255.344C450.905 255.316 450.782 255.303 450.637 255.303C450.302 255.303 450.062 255.386 449.917 255.552C449.775 255.718 449.705 255.958 449.705 256.272V264H448.324ZM454.037 254.545V264H452.657V254.545H454.037ZM457.958 264.157C457.508 264.157 457.102 264.074 456.739 263.908C456.376 263.738 456.088 263.494 455.876 263.174C455.666 262.854 455.562 262.461 455.562 261.996C455.562 261.596 455.639 261.267 455.793 261.009C455.947 260.75 456.154 260.545 456.416 260.395C456.677 260.244 456.97 260.13 457.293 260.053C457.616 259.976 457.945 259.917 458.281 259.877C458.706 259.828 459.05 259.788 459.315 259.757C459.58 259.724 459.772 259.67 459.892 259.596C460.012 259.522 460.072 259.402 460.072 259.236V259.203C460.072 258.8 459.958 258.488 459.731 258.266C459.506 258.045 459.17 257.934 458.724 257.934C458.259 257.934 457.893 258.037 457.625 258.243C457.361 258.446 457.178 258.673 457.076 258.922L455.779 258.626C455.933 258.196 456.157 257.848 456.453 257.583C456.751 257.315 457.095 257.121 457.482 257.001C457.87 256.878 458.278 256.817 458.706 256.817C458.989 256.817 459.289 256.851 459.606 256.918C459.926 256.983 460.224 257.103 460.501 257.278C460.782 257.454 461.011 257.705 461.189 258.031C461.368 258.354 461.457 258.774 461.457 259.291V264H460.109V263.031H460.054C459.964 263.209 459.831 263.384 459.652 263.557C459.474 263.729 459.244 263.872 458.964 263.986C458.684 264.1 458.349 264.157 457.958 264.157ZM458.258 263.049C458.639 263.049 458.966 262.974 459.237 262.823C459.51 262.672 459.718 262.475 459.86 262.232C460.004 261.986 460.077 261.723 460.077 261.442V260.528C460.028 260.578 459.932 260.624 459.791 260.667C459.652 260.707 459.494 260.742 459.315 260.773C459.137 260.801 458.963 260.827 458.793 260.852C458.624 260.873 458.483 260.892 458.369 260.907C458.101 260.941 457.856 260.998 457.635 261.078C457.416 261.158 457.241 261.273 457.108 261.424C456.979 261.572 456.914 261.769 456.914 262.015C456.914 262.357 457.041 262.615 457.293 262.79C457.545 262.963 457.867 263.049 458.258 263.049ZM468.609 258.64L467.358 258.862C467.306 258.702 467.223 258.549 467.109 258.405C466.998 258.26 466.847 258.142 466.656 258.049C466.466 257.957 466.227 257.911 465.941 257.911C465.55 257.911 465.224 257.999 464.962 258.174C464.701 258.346 464.57 258.569 464.57 258.843C464.57 259.08 464.657 259.271 464.833 259.416C465.008 259.56 465.291 259.679 465.682 259.771L466.809 260.03C467.461 260.181 467.947 260.413 468.268 260.727C468.588 261.041 468.748 261.449 468.748 261.95C468.748 262.375 468.625 262.754 468.378 263.086C468.135 263.415 467.795 263.674 467.358 263.862C466.924 264.049 466.421 264.143 465.848 264.143C465.054 264.143 464.407 263.974 463.905 263.635C463.403 263.294 463.096 262.809 462.982 262.181L464.316 261.978C464.399 262.326 464.57 262.589 464.828 262.767C465.087 262.943 465.424 263.031 465.839 263.031C466.292 263.031 466.653 262.937 466.924 262.749C467.195 262.558 467.33 262.326 467.33 262.052C467.33 261.83 467.247 261.644 467.081 261.493C466.918 261.342 466.667 261.229 466.329 261.152L465.128 260.888C464.467 260.738 463.977 260.498 463.66 260.168C463.346 259.839 463.189 259.422 463.189 258.917C463.189 258.499 463.306 258.132 463.54 257.819C463.774 257.505 464.097 257.26 464.51 257.085C464.922 256.906 465.395 256.817 465.927 256.817C466.693 256.817 467.297 256.983 467.737 257.315C468.177 257.645 468.468 258.086 468.609 258.64ZM471.646 259.79V264H470.265V254.545H471.627V258.063H471.715C471.881 257.682 472.135 257.378 472.477 257.154C472.818 256.929 473.264 256.817 473.815 256.817C474.302 256.817 474.726 256.917 475.09 257.117C475.456 257.317 475.739 257.615 475.939 258.012C476.142 258.406 476.244 258.899 476.244 259.49V264H474.863V259.656C474.863 259.136 474.729 258.733 474.462 258.446C474.194 258.157 473.822 258.012 473.345 258.012C473.018 258.012 472.726 258.082 472.467 258.22C472.212 258.359 472.01 258.562 471.863 258.83C471.718 259.094 471.646 259.414 471.646 259.79ZM482.264 259.407V260.602H478.072V259.407H482.264ZM489.417 258.64L488.166 258.862C488.113 258.702 488.03 258.549 487.916 258.405C487.806 258.26 487.655 258.142 487.464 258.049C487.273 257.957 487.035 257.911 486.748 257.911C486.358 257.911 486.031 257.999 485.77 258.174C485.508 258.346 485.377 258.569 485.377 258.843C485.377 259.08 485.465 259.271 485.64 259.416C485.816 259.56 486.099 259.679 486.49 259.771L487.616 260.03C488.269 260.181 488.755 260.413 489.075 260.727C489.395 261.041 489.555 261.449 489.555 261.95C489.555 262.375 489.432 262.754 489.186 263.086C488.943 263.415 488.603 263.674 488.166 263.862C487.732 264.049 487.229 264.143 486.656 264.143C485.862 264.143 485.214 263.974 484.713 263.635C484.211 263.294 483.903 262.809 483.789 262.181L485.123 261.978C485.207 262.326 485.377 262.589 485.636 262.767C485.894 262.943 486.231 263.031 486.647 263.031C487.099 263.031 487.461 262.937 487.732 262.749C488.003 262.558 488.138 262.326 488.138 262.052C488.138 261.83 488.055 261.644 487.889 261.493C487.726 261.342 487.475 261.229 487.136 261.152L485.936 260.888C485.274 260.738 484.785 260.498 484.468 260.168C484.154 259.839 483.997 259.422 483.997 258.917C483.997 258.499 484.114 258.132 484.348 257.819C484.582 257.505 484.905 257.26 485.317 257.085C485.73 256.906 486.202 256.817 486.735 256.817C487.501 256.817 488.104 256.983 488.544 257.315C488.984 257.645 489.275 258.086 489.417 258.64ZM492.453 259.79V264H491.073V254.545H492.435V258.063H492.523C492.689 257.682 492.943 257.378 493.284 257.154C493.626 256.929 494.072 256.817 494.623 256.817C495.109 256.817 495.534 256.917 495.897 257.117C496.263 257.317 496.547 257.615 496.747 258.012C496.95 258.406 497.051 258.899 497.051 259.49V264H495.671V259.656C495.671 259.136 495.537 258.733 495.269 258.446C495.002 258.157 494.629 258.012 494.152 258.012C493.826 258.012 493.534 258.082 493.275 258.22C493.02 258.359 492.818 258.562 492.67 258.83C492.526 259.094 492.453 259.414 492.453 259.79ZM501.949 264.143C501.251 264.143 500.649 263.994 500.144 263.695C499.643 263.394 499.255 262.971 498.981 262.426C498.71 261.878 498.575 261.236 498.575 260.501C498.575 259.774 498.71 259.134 498.981 258.58C499.255 258.026 499.636 257.594 500.126 257.283C500.618 256.972 501.194 256.817 501.852 256.817C502.253 256.817 502.64 256.883 503.016 257.015C503.391 257.148 503.728 257.355 504.027 257.638C504.325 257.922 504.561 258.289 504.733 258.742C504.905 259.191 504.992 259.737 504.992 260.381V260.87H499.355V259.836H503.639C503.639 259.473 503.565 259.151 503.417 258.871C503.27 258.588 503.062 258.365 502.794 258.202C502.529 258.039 502.219 257.957 501.862 257.957C501.474 257.957 501.135 258.052 500.846 258.243C500.56 258.431 500.338 258.677 500.181 258.982C500.027 259.283 499.95 259.611 499.95 259.965V260.773C499.95 261.247 500.034 261.65 500.2 261.983C500.369 262.315 500.604 262.569 500.906 262.744C501.208 262.917 501.56 263.003 501.963 263.003C502.225 263.003 502.463 262.966 502.679 262.892C502.894 262.815 503.08 262.701 503.237 262.55C503.394 262.4 503.514 262.213 503.597 261.992L504.904 262.227C504.799 262.612 504.612 262.949 504.341 263.238C504.073 263.525 503.736 263.748 503.33 263.908C502.927 264.065 502.466 264.143 501.949 264.143ZM507.903 254.545V264H506.523V254.545H507.903ZM511.141 254.545V264H509.76V254.545H511.141Z" fill="black"/>
</g>
<path d="M156 245H803H156ZM803 275H156V273H803V275ZM156 274V245V274ZM803 245V274V245Z" fill="#D1D1D1" mask="url(#path-3-inside-1_522_215)"/>
</g>
<defs>
<clipPath id="clip0_522_215">
<rect width="960" height="540" fill="white"/>
</clipPath>
<clipPath id="clip1_522_215">
<path d="M156 257C156 250.373 161.373 245 168 245H791C797.627 245 803 250.373 803 257V274H156V257Z" fill="white"/>
</clipPath>
</defs>
</svg>
